<svg xmlns="http://www.w3.org/2000/svg" viewBox="0 0 199 98" width="199" height="98">
	<defs>
		<clipPath clipPathUnits="userSpaceOnUse" id="cp1">
			<path d="M0 0L199 0L199 98L0 98Z" />
		</clipPath>
	</defs>
	<style>
		tspan { white-space:pre }
		.shp0 { fill: #ffffff } 
		.shp1 { fill: #f05123 } 
	</style>
	<g id="Page 1" clip-path="url(#cp1)">
		<path id="Path 1" fill-rule="evenodd" class="shp0" d="M63.81 59.17L63.81 76.13L56.36 76.13L56.36 29.47L76.97 29.47C80.57 29.47 83.24 29.79 85 30.43C87.98 31.5 90.24 33.38 91.77 36.07C93 38.28 93.61 40.98 93.61 44.17C93.61 49.46 91.98 53.46 88.73 56.2C87.45 57.27 85.8 58.03 83.77 58.49C81.74 58.94 79.01 59.17 75.57 59.17L63.81 59.17ZM63.81 53.23L76.08 53.23C79.56 53.23 81.98 52.55 83.32 51.21C84.87 49.68 85.65 47.29 85.65 44.03C85.65 41.18 84.86 38.95 83.29 37.33C82.06 36.06 79.55 35.42 75.77 35.42L63.81 35.42L63.81 53.23ZM95.42 76.13L114.73 29.47L124.54 29.47L143.1 76.13L135.17 76.13L130.42 63.92L108.31 63.92L103.35 76.13L95.42 76.13ZM119.52 35.04L110.56 57.98L128.03 57.98L119.52 35.04ZM147.95 76.13L147.95 70.18L156.98 70.18C160.08 70.18 162.41 70.02 163.98 69.68C165.56 69.36 166.77 68.77 167.64 67.92C168.46 67.13 169.02 65.92 169.33 64.32C169.64 62.71 169.79 60.18 169.79 56.71L169.79 29.47L177.24 29.47L177.24 56.71C177.24 61.41 176.97 64.77 176.42 66.8C175.67 69.42 174.07 71.58 171.6 73.29C169.94 74.41 168.11 75.16 166.1 75.55C164.09 75.93 161.05 76.13 156.98 76.13L147.95 76.13ZM155.7 91.45C155.15 91.65 154.07 91.97 152.8 91.97C151.37 91.97 150.19 91.61 149.27 90.73C148.46 89.94 147.95 88.68 147.95 87.21C147.97 84.39 149.9 82.34 153.07 82.34C154.16 82.34 155.01 82.57 155.42 82.77L155.12 83.76C154.62 83.54 153.99 83.36 153.04 83.36C150.74 83.36 149.24 84.79 149.24 87.15C149.24 89.55 150.68 90.96 152.88 90.96C153.68 90.96 154.23 90.85 154.51 90.71L154.51 87.9L152.59 87.9L152.59 86.92L155.7 86.92L155.7 91.45Z" />
		<path id="Path 2" fill-rule="evenodd" class="shp0" d="M161.69 82.55C162.28 82.45 163.05 82.36 164.03 82.36C165.24 82.36 166.12 82.64 166.68 83.15C167.2 83.6 167.51 84.28 167.51 85.12C167.51 85.98 167.25 86.65 166.78 87.14C166.13 87.83 165.08 88.18 163.89 88.18C163.53 88.18 163.19 88.16 162.91 88.09L162.91 91.88L161.69 91.88L161.69 82.55ZM162.91 87.1C163.18 87.17 163.52 87.2 163.92 87.2C165.39 87.2 166.29 86.48 166.29 85.18C166.29 83.93 165.41 83.33 164.06 83.33C163.53 83.33 163.12 83.37 162.91 83.43L162.91 87.1ZM171.83 90.39C172.38 90.73 173.18 91.01 174.02 91.01C175.27 91.01 175.99 90.35 175.99 89.39C175.99 88.51 175.49 88.01 174.22 87.52C172.68 86.97 171.72 86.17 171.72 84.84C171.72 83.37 172.94 82.28 174.78 82.28C175.74 82.28 176.44 82.5 176.86 82.74L176.53 83.74C176.22 83.57 175.59 83.29 174.73 83.29C173.45 83.29 172.96 84.06 172.96 84.7C172.96 85.59 173.53 86.02 174.83 86.52C176.43 87.14 177.24 87.91 177.24 89.3C177.24 90.75 176.16 92.01 173.94 92.01C173.03 92.01 172.03 91.75 171.53 91.41L171.83 90.39Z" />
		<path id="Path 3" class="shp1" d="M40.95 58.93L3.79 31.01L39.87 3.1C39.87 3.1 18.07 31.1 40.95 58.93ZM3.79 39.01L40.95 66.93L4.86 94.84C4.86 94.84 26.67 66.84 3.79 39.01Z" />
	</g>
</svg>